<svg width="19" height="20" viewBox="0 0 19 20" fill="none" xmlns="http://www.w3.org/2000/svg">
<path d="M10.7397 0.30622L17.8809 4.06812C18.2187 4.24611 18.5012 4.51164 18.6984 4.83633C18.8955 5.16101 18.9997 5.53264 19 5.91145V14.103C19 14.8779 18.5678 15.5889 17.8771 15.9501L10.735 19.696C9.96265 20.1013 9.03735 20.1013 8.265 19.696L1.1229 15.952C0.783836 15.7742 0.50013 15.5083 0.302282 15.1828C0.104435 14.8574 -7.08312e-05 14.4847 3.60183e-08 14.1049V5.91333C3.60183e-08 5.14026 0.43035 4.4302 1.1191 4.06718L8.26025 0.30622C8.64192 0.105155 9.06765 0 9.5 0C9.93235 0 10.3581 0.105155 10.7397 0.30622ZM8.6507 2.00002L8.4911 2.07807L2.7816 5.15343C2.53785 5.2849 2.33059 5.47382 2.17814 5.70347C2.0257 5.93312 1.93278 6.19643 1.9076 6.47009L1.9 6.62245V13.392C1.9 13.9582 2.1888 14.4829 2.66285 14.7895L2.78445 14.862L8.49395 17.9241C8.77644 18.0757 9.09015 18.1615 9.41119 18.1748C9.73222 18.1882 10.0521 18.1288 10.3464 18.0013L10.5051 17.9241L16.2155 14.862C16.719 14.592 17.0468 14.0908 17.0943 13.5321L17.1 13.391V6.62245C17.1 6.06099 16.815 5.5409 16.3495 5.23243L16.2184 5.15343L10.5089 2.07807C10.2258 1.92545 9.91106 1.83906 9.58895 1.82553C9.26684 1.812 8.94589 1.87168 8.6507 2.00002ZM13.4862 6.78985C13.5943 6.72713 13.7138 6.68618 13.838 6.66938C13.9621 6.65258 14.0884 6.66025 14.2095 6.69195C14.3306 6.72365 14.4442 6.77876 14.5437 6.8541C14.6432 6.92944 14.7267 7.02353 14.7894 7.13094C14.852 7.23835 14.8926 7.35697 14.9087 7.47996C14.9249 7.60296 14.9163 7.7279 14.8835 7.8476C14.8506 7.9673 14.7942 8.07938 14.7175 8.17741C14.6407 8.27543 14.5451 8.35746 14.4362 8.41876L10.45 10.6966V14.7011C10.45 14.9506 10.3499 15.1898 10.1718 15.3661C9.99359 15.5425 9.75196 15.6416 9.5 15.6416C9.24804 15.6416 9.00641 15.5425 8.82825 15.3661C8.65009 15.1898 8.55 14.9506 8.55 14.7011V10.6975L4.5638 8.41876C4.34738 8.29316 4.18994 8.08791 4.12581 7.84781C4.06169 7.60771 4.09611 7.35225 4.22154 7.13718C4.34697 6.9221 4.55325 6.76487 4.79535 6.69981C5.03745 6.63474 5.29572 6.66711 5.5138 6.78985L9.4848 9.05828H9.5133L13.4862 6.78985Z" fill="#1F6DD8"/>
</svg>
